<?xml version="1.0" standalone="no"?>
<svg viewBox="0 0 36 35" width="36px" height="35px" fill="none" xmlns="http://www.w3.org/2000/svg">
  <defs>
    <linearGradient gradientUnits="userSpaceOnUse" x1="11.915" y1="2.581" x2="11.915" y2="31.769" id="gradient-1" gradientTransform="matrix(1, 0, 0, 1, -0.004183, 0.015708)">
      <stop offset="0" style="stop-color: rgb(15.686% 56.078% 100%)"/>
      <stop offset="1" style="stop-color: rgb(0% 35.165% 61.663%)"/>
    </linearGradient>
    <linearGradient gradientUnits="userSpaceOnUse" x1="25.383" y1="2.545" x2="25.383" y2="31.769" id="gradient-0" gradientTransform="matrix(1, 0, 0, 1, 0.713348, 0.032192)">
      <stop offset="0" style="stop-color: rgb(15.686% 56.078% 100%)"/>
      <stop offset="1" style="stop-color: rgb(0% 35.165% 61.663%)"/>
    </linearGradient>
  </defs>
  <path style="fill-rule: nonzero; stroke: url('#gradient-1'); paint-order: stroke; fill: rgb(40, 143, 255); stroke-width: 2px;" d="M 18.864 2.597 C 18.58 2.597 18.291 2.605 17.993 2.623 C 17.921 2.627 17.12 2.688 17.123 2.7 C 16.95 2.722 16.799 2.845 16.753 3.023 L 15.98 6.011 C 15.75 6.072 15.522 6.139 15.295 6.211 C 15.072 6.285 14.848 6.365 14.625 6.453 L 12.254 4.498 C 12.119 4.379 11.92 4.352 11.754 4.444 C 10.743 5.01 9.799 5.696 8.949 6.483 C 8.814 6.6 8.759 6.793 8.828 6.97 L 9.961 9.844 C 9.808 10.029 9.662 10.218 9.524 10.407 C 9.389 10.594 9.256 10.789 9.126 10.995 L 6.05 10.806 C 5.873 10.791 5.697 10.886 5.618 11.058 C 5.463 11.391 4.365 14.332 4.543 14.37 C 4.511 14.539 4.583 14.72 4.736 14.818 L 7.344 16.479 C 7.317 16.955 7.317 17.426 7.344 17.901 L 4.767 19.544 C 4.601 19.631 4.505 19.819 4.542 20.012 C 4.655 20.586 4.802 21.15 4.981 21.703 C 5.161 22.255 5.374 22.796 5.617 23.32 C 5.688 23.478 5.853 23.587 6.038 23.575 L 9.126 23.386 C 9.256 23.591 9.39 23.787 9.525 23.975 C 9.662 24.164 9.808 24.352 9.962 24.535 L 8.828 27.411 C 8.766 27.572 8.804 27.762 8.939 27.887 C 9.078 28.017 11.669 30.108 11.754 29.937 C 11.906 30.02 12.1 30.009 12.241 29.892 L 14.625 27.927 C 14.849 28.016 15.072 28.096 15.295 28.169 C 15.522 28.242 15.75 28.31 15.98 28.368 L 16.746 31.328 C 16.78 31.51 16.929 31.658 17.123 31.68 C 17.404 31.713 17.695 31.74 17.994 31.758 C 18.292 31.776 18.581 31.785 18.864 31.785 C 19.103 31.785 19.298 31.589 19.298 31.348 L 19.298 3.033 C 19.298 2.792 19.103 2.597 18.864 2.597 Z M 18.427 23.394 C 16.883 23.287 15.495 22.618 14.465 21.587 C 13.339 20.463 12.643 18.908 12.643 17.19 C 12.643 15.473 13.339 13.918 14.465 12.793 C 15.495 11.763 16.883 11.093 18.427 10.985 L 18.427 23.394 Z M 18.427 10.113 C 16.643 10.221 15.036 10.989 13.849 12.176 C 12.566 13.46 11.772 15.233 11.772 17.191 C 11.772 19.149 12.566 20.921 13.849 22.205 C 15.036 23.392 16.643 24.16 18.427 24.268 L 18.427 30.907 C 18.296 30.903 18.17 30.897 18.045 30.89 C 17.87 30.88 17.696 30.866 17.518 30.848 L 16.755 27.898 C 16.741 27.843 16.433 27.584 16.434 27.583 C 16.138 27.514 15.846 27.434 15.564 27.342 C 15.269 27.247 14.987 27.143 14.717 27.028 C 14.563 26.964 14.393 26.993 14.273 27.093 L 11.921 29.032 C 11.147 28.577 10.418 28.046 9.748 27.449 L 10.866 24.613 C 10.931 24.449 10.888 24.271 10.774 24.153 C 10.586 23.935 10.404 23.705 10.229 23.464 C 10.045 23.211 9.879 22.961 9.727 22.711 C 9.645 22.575 9.491 22.494 9.331 22.503 L 6.286 22.69 C 6.107 22.281 5.948 21.861 5.809 21.434 C 5.671 21.01 5.554 20.577 5.457 20.133 L 8.029 18.494 C 8.17 18.405 8.241 18.248 8.228 18.092 C 8.228 18.092 8.218 16.439 8.23 16.289 C 8.245 16.109 8.148 15.945 7.997 15.867 L 5.457 14.247 C 5.647 13.371 5.926 12.514 6.285 11.692 L 9.331 11.878 C 9.509 11.889 9.666 11.791 9.743 11.644 C 9.889 11.402 10.052 11.162 10.229 10.918 C 10.41 10.671 10.595 10.434 10.789 10.211 C 10.898 10.086 10.922 9.913 10.865 9.769 L 9.748 6.932 C 10.419 6.335 11.147 5.804 11.921 5.35 L 14.273 7.289 C 14.405 7.397 14.58 7.415 14.726 7.349 C 14.992 7.237 15.271 7.134 15.564 7.04 C 15.846 6.948 16.137 6.867 16.434 6.797 C 16.606 6.757 16.731 6.619 16.762 6.455 L 17.518 3.533 C 17.696 3.516 17.87 3.502 18.043 3.492 C 18.169 3.484 18.296 3.478 18.427 3.474 L 18.427 10.113 Z"/>
  <path d="M 27.065 33.056 L 27.065 23.37 L 36.759 23.37 L 36.759 33.056 L 27.065 33.056 Z M 36.688 23.439 L 27.136 23.439 L 27.136 32.986 L 36.688 32.986 L 36.688 23.439 Z M 53.077 33.056 L 43.384 33.056 L 43.384 23.37 L 53.077 23.37 L 53.077 33.056 Z M 43.454 23.439 L 43.454 32.986 L 53.007 32.986 L 53.007 23.439 L 43.454 23.439 Z M 34.469 26.276 L 32.529 28.216 L 34.469 30.163 L 33.852 30.78 L 31.905 28.84 L 29.972 30.773 L 29.355 30.156 L 31.302 28.21 L 29.355 26.27 L 29.972 25.652 L 31.912 27.599 L 33.852 25.659 L 34.469 26.276 Z M 31.912 27.699 L 29.972 25.751 L 29.454 26.269 L 31.402 28.209 L 29.454 30.156 L 29.972 30.674 L 31.905 28.741 L 33.852 30.681 L 34.37 30.163 L 32.43 28.216 L 34.37 26.276 L 33.852 25.759 L 31.912 27.699 Z M 50.753 25.532 L 51.035 25.204 L 51.691 25.768 L 46.919 31.327 L 44.771 28.341 L 45.472 27.831 L 46.973 29.924 L 50.753 25.532 Z M 46.967 30.037 L 45.456 27.929 L 44.868 28.357 L 46.924 31.213 L 51.592 25.776 L 51.043 25.303 L 50.806 25.577 L 46.967 30.037 Z M 45.208 14.178 C 43.792 15.593 41.928 16.305 40.072 16.305 C 38.214 16.305 36.35 15.594 34.934 14.178 C 33.518 12.762 32.807 10.898 32.807 9.04 C 32.807 7.183 33.518 5.319 34.934 3.903 C 36.35 2.487 38.214 1.776 40.072 1.776 C 41.928 1.776 43.792 2.487 45.208 3.903 C 46.625 5.319 47.336 7.182 47.336 9.037 C 47.336 10.894 46.624 12.757 45.208 14.178 Z M 47.266 9.038 C 47.266 7.195 46.565 5.358 45.159 3.953 C 43.753 2.547 41.916 1.846 40.072 1.846 C 38.227 1.846 36.39 2.547 34.983 3.953 C 33.577 5.358 32.877 7.196 32.877 9.04 C 32.877 10.885 33.577 12.723 34.983 14.128 C 36.39 15.534 38.227 16.235 40.072 16.235 C 41.916 16.235 43.754 15.535 45.159 14.128 C 46.567 12.719 47.266 10.881 47.266 9.038 Z M 41.742 10.711 C 41.371 11.078 40.931 11.292 40.484 11.369 C 40.038 11.444 39.576 11.386 39.166 11.215 C 38.756 11.047 38.388 10.761 38.127 10.391 C 37.865 10.021 37.704 9.557 37.704 9.033 C 37.704 8.511 37.865 8.048 38.127 7.678 C 38.388 7.308 38.756 7.025 39.166 6.854 C 39.576 6.684 40.038 6.626 40.484 6.702 C 40.931 6.779 41.372 6.993 41.742 7.363 C 42.202 7.823 42.435 8.434 42.435 9.037 C 42.435 9.64 42.201 10.249 41.742 10.711 Z M 42.365 9.037 C 42.365 8.446 42.142 7.862 41.693 7.412 C 41.33 7.05 40.91 6.846 40.472 6.771 C 40.036 6.696 39.594 6.753 39.193 6.919 C 38.791 7.085 38.439 7.358 38.184 7.719 C 37.928 8.081 37.774 8.523 37.774 9.033 C 37.774 9.546 37.928 9.989 38.184 10.351 C 38.439 10.713 38.791 10.985 39.193 11.151 C 39.594 11.318 40.036 11.374 40.472 11.299 C 40.91 11.225 41.331 11.023 41.693 10.661 C 42.144 10.212 42.365 9.628 42.365 9.037 Z M 40.072 5.875 C 40.943 5.875 41.739 6.231 42.31 6.802 C 42.881 7.372 43.237 8.168 43.237 9.04 C 43.237 9.913 42.881 10.708 42.31 11.279 C 41.739 11.85 40.943 12.206 40.072 12.206 C 39.199 12.206 38.404 11.85 37.832 11.279 C 37.262 10.708 36.906 9.913 36.906 9.04 C 36.906 8.168 37.262 7.372 37.832 6.802 C 38.404 6.231 39.199 5.875 40.072 5.875 Z M 37.882 6.851 C 37.32 7.413 36.976 8.182 36.976 9.04 C 36.976 9.898 37.32 10.668 37.882 11.23 C 38.444 11.791 39.213 12.136 40.072 12.136 C 40.929 12.136 41.698 11.791 42.261 11.23 C 42.823 10.668 43.167 9.898 43.167 9.04 C 43.167 8.182 42.823 7.413 42.261 6.851 C 41.698 6.289 40.929 5.945 40.072 5.945 C 39.213 5.945 38.444 6.289 37.882 6.851 Z M 40.533 5.054 C 41.508 5.234 41.764 5.344 42.581 5.899 L 43.293 5.195 L 43.938 5.84 L 43.226 6.552 C 43.782 7.369 43.885 7.625 44.071 8.6 L 45.079 8.6 L 45.079 9.51 L 44.071 9.51 C 43.891 10.484 43.782 10.74 43.226 11.558 L 43.938 12.269 L 43.293 12.914 L 42.581 12.209 C 41.763 12.764 41.508 12.868 40.533 13.054 L 40.533 14.062 L 39.623 14.062 L 39.623 13.054 C 38.634 12.867 38.379 12.75 37.575 12.209 L 36.864 12.914 L 36.219 12.269 L 36.931 11.558 C 36.701 11.222 36.545 11.004 36.369 10.588 C 36.193 10.17 36.152 9.913 36.078 9.51 L 35.078 9.51 L 35.078 8.6 L 36.079 8.6 C 36.258 7.625 36.369 7.369 36.924 6.552 L 36.212 5.84 L 36.857 5.195 L 37.569 5.899 C 38.386 5.344 38.642 5.241 39.616 5.055 L 39.616 4.047 L 40.533 4.047 L 40.533 5.054 Z M 39.686 4.117 L 39.686 5.113 L 39.657 5.118 C 38.667 5.306 38.414 5.409 37.584 5.973 L 37.56 5.99 L 36.857 5.294 L 36.311 5.84 L 37.014 6.543 L 36.998 6.567 C 36.432 7.397 36.323 7.649 36.141 8.641 L 36.136 8.669 L 35.148 8.669 L 35.148 9.44 L 36.136 9.44 L 36.141 9.469 C 36.219 9.889 36.261 10.151 36.434 10.561 C 36.607 10.97 36.767 11.191 37.005 11.542 L 37.021 11.566 L 36.318 12.269 L 36.864 12.815 L 37.567 12.119 L 37.591 12.135 C 38.407 12.687 38.66 12.803 39.664 12.992 L 39.693 12.996 L 39.693 13.991 L 40.464 13.991 L 40.464 12.996 L 40.492 12.992 C 41.484 12.802 41.736 12.701 42.566 12.135 L 42.59 12.119 L 43.293 12.815 L 43.838 12.269 L 43.136 11.566 L 43.152 11.542 C 43.717 10.711 43.827 10.459 44.008 9.469 L 44.014 9.44 L 45.009 9.44 L 45.009 8.669 L 44.014 8.669 L 44.008 8.641 C 43.82 7.649 43.717 7.397 43.152 6.567 L 43.136 6.543 L 43.838 5.84 L 43.293 5.294 L 42.59 5.99 L 42.566 5.973 C 41.735 5.409 41.482 5.299 40.492 5.118 L 40.464 5.113 L 40.464 4.117 L 39.686 4.117 Z M 41.325 4.398 C 41.731 4.511 42.101 4.66 42.461 4.871 L 43.279 4.054 L 45.051 5.825 L 44.233 6.644 C 44.438 7.004 44.594 7.374 44.707 7.779 L 45.863 7.779 L 45.863 10.287 L 44.707 10.287 C 44.594 10.694 44.445 11.063 44.234 11.423 L 45.051 12.241 L 43.279 14.014 L 42.461 13.196 C 42.101 13.4 41.731 13.556 41.325 13.669 L 41.325 14.825 L 38.818 14.825 L 38.818 13.669 C 38.616 13.613 38.427 13.549 38.237 13.471 C 38.033 13.387 37.858 13.302 37.682 13.202 L 36.864 14.02 L 35.091 12.248 L 35.909 11.43 C 35.704 11.07 35.549 10.699 35.437 10.295 L 34.28 10.295 L 34.28 7.786 L 35.437 7.786 C 35.549 7.38 35.699 7.01 35.909 6.651 L 35.091 5.833 L 36.864 4.06 L 37.682 4.878 C 38.041 4.674 38.412 4.518 38.818 4.405 L 38.818 3.241 L 41.325 3.241 L 41.325 4.398 Z M 38.888 3.311 L 38.888 4.458 L 38.862 4.466 C 38.451 4.577 38.056 4.743 37.694 4.953 L 37.671 4.967 L 36.864 4.159 L 35.19 5.833 L 35.997 6.64 L 35.983 6.663 C 35.767 7.025 35.608 7.42 35.497 7.831 L 35.49 7.857 L 34.35 7.857 L 34.35 10.224 L 35.49 10.224 L 35.497 10.25 C 35.608 10.661 35.774 11.056 35.983 11.418 L 35.997 11.441 L 35.19 12.248 L 36.864 13.921 L 37.671 13.114 L 37.694 13.128 C 37.875 13.233 38.062 13.322 38.264 13.406 C 38.452 13.483 38.653 13.553 38.862 13.608 L 38.888 13.615 L 38.888 14.755 L 41.255 14.755 L 41.255 13.615 L 41.281 13.608 C 41.692 13.496 42.087 13.33 42.449 13.121 L 42.473 13.108 L 43.279 13.914 L 44.952 12.241 L 44.145 11.434 L 44.16 11.41 C 44.375 11.049 44.535 10.654 44.646 10.243 L 44.653 10.217 L 45.794 10.217 L 45.794 7.849 L 44.653 7.849 L 44.646 7.824 C 44.535 7.413 44.368 7.018 44.159 6.656 L 44.145 6.632 L 44.952 5.825 L 43.279 4.153 L 42.473 4.96 L 42.449 4.946 C 42.087 4.73 41.692 4.57 41.281 4.458 L 41.255 4.452 L 41.255 3.311 L 38.888 3.311 Z M 40.505 17.718 L 40.505 19.293 L 48.665 19.293 L 48.665 21.878 L 47.797 21.878 L 47.797 20.162 L 32.347 20.162 L 32.347 21.878 L 31.478 21.878 L 31.478 19.293 L 39.637 19.293 L 39.637 17.718 L 40.505 17.718 Z M 39.707 19.364 L 31.548 19.364 L 31.548 21.808 L 32.276 21.808 L 32.276 20.092 L 47.866 20.092 L 47.866 21.808 L 48.595 21.808 L 48.595 19.364 L 40.436 19.364 L 40.436 17.788 L 39.707 17.788 L 39.707 19.364 Z" style="fill: none;"/>
  <path d="M 22.795 31.801 L 29.399 31.801 C 29.668 31.801 29.886 31.583 29.886 31.314 L 29.886 3.065 C 29.886 2.796 29.668 2.577 29.399 2.577 L 22.795 2.577 C 22.526 2.577 22.308 2.796 22.308 3.065 L 22.308 31.314 C 22.308 31.583 22.526 31.801 22.795 31.801 Z M 28.913 24.522 C 28.053 25.008 27.084 25.269 26.098 25.283 C 25.125 25.273 24.163 25.483 23.282 25.896 L 23.282 17.676 L 28.912 17.676 L 28.913 24.522 Z M 23.282 30.827 L 23.282 26.998 C 23.656 26.761 24.623 26.256 26.098 26.256 C 27.071 26.247 28.031 26.027 28.912 25.612 L 28.912 30.827 L 23.282 30.827 Z M 28.913 3.55 L 28.913 16.702 L 23.282 16.702 L 23.282 3.55 L 28.913 3.55 Z" style="paint-order: stroke; stroke: url('#gradient-0'); fill: rgb(40, 143, 255); stroke-width: 2px;"/>
</svg>