<?xml version="1.0" encoding="utf-8"?>
<svg viewBox="0 0 36 35" width="36px" height="35px" fill="none" xmlns="http://www.w3.org/2000/svg">
  <path d="M 14.424 21.877 L 6.085 21.877 L 6.085 30.211 L 14.424 30.211 L 14.424 21.877 M 28.566 21.877 L 20.227 21.877 L 20.227 30.211 L 28.566 30.211 L 28.566 21.877 M 11.693 24.117 L 11.935 23.874 L 12.427 24.366 L 10.745 26.047 L 12.427 27.734 L 11.935 28.226 L 10.248 26.545 L 8.573 28.22 L 8.082 27.728 L 9.769 26.041 L 8.082 24.36 L 8.573 23.868 L 10.254 25.555 L 11.693 24.117 M 26.606 23.741 L 26.83 23.479 L 27.352 23.929 L 23.26 28.694 L 21.441 26.162 L 21.999 25.756 L 23.303 27.576 L 26.606 23.741 M 16.979 17.325 L 16.979 16.979 L 17.671 16.979 L 17.671 18.345 L 24.742 18.345 L 24.742 20.524 L 24.05 20.524 L 24.05 19.036 L 10.6 19.036 L 10.6 20.524 L 9.908 20.524 L 9.908 18.345 L 16.979 18.345 L 16.979 17.325" style="fill: rgb(66, 133, 244);" transform="matrix(1, 0, 0, 1, 1.7763568394002505e-15, 0)"/>
  <path d="M 6.054 30.241 L 6.054 21.847 L 14.454 21.847 L 14.454 30.241 L 6.054 30.241 Z M 14.393 21.906 L 6.114 21.906 L 6.114 30.18 L 14.393 30.18 L 14.393 21.906 Z M 28.596 30.241 L 20.196 30.241 L 20.196 21.847 L 28.596 21.847 L 28.596 30.241 Z M 20.256 21.906 L 20.256 30.18 L 28.536 30.18 L 28.536 21.906 L 20.256 21.906 Z M 12.469 24.366 L 10.788 26.047 L 12.469 27.734 L 11.935 28.268 L 10.248 26.588 L 8.573 28.262 L 8.039 27.728 L 9.726 26.041 L 8.039 24.36 L 8.573 23.825 L 10.254 25.512 L 11.935 23.831 L 12.469 24.366 Z M 10.254 25.598 L 8.573 23.91 L 8.125 24.36 L 9.813 26.04 L 8.125 27.728 L 8.573 28.177 L 10.248 26.502 L 11.935 28.183 L 12.385 27.734 L 10.703 26.047 L 12.385 24.366 L 11.935 23.917 L 10.254 25.598 Z M 26.583 23.721 L 26.827 23.436 L 27.394 23.925 L 23.259 28.742 L 21.398 26.156 L 22.006 25.713 L 23.306 27.527 L 26.583 23.721 Z M 23.301 27.625 L 21.991 25.798 L 21.482 26.169 L 23.264 28.644 L 27.309 23.932 L 26.833 23.522 L 26.629 23.76 L 23.301 27.625 Z M 21.777 13.881 C 20.55 15.107 18.934 15.724 17.326 15.724 C 15.716 15.724 14.1 15.108 12.873 13.881 C 11.646 12.654 11.029 11.038 11.029 9.428 C 11.029 7.82 11.646 6.203 12.873 4.977 C 14.1 3.75 15.716 3.134 17.326 3.134 C 18.934 3.134 20.55 3.75 21.777 4.977 C 23.005 6.203 23.62 7.817 23.62 9.426 C 23.62 11.035 23.003 12.649 21.777 13.881 Z M 23.56 9.427 C 23.56 7.83 22.953 6.237 21.734 5.02 C 20.516 3.801 18.923 3.194 17.326 3.194 C 15.727 3.194 14.134 3.801 12.916 5.02 C 11.697 6.237 11.09 7.831 11.09 9.428 C 11.09 11.027 11.697 12.62 12.916 13.838 C 14.134 15.057 15.727 15.664 17.326 15.664 C 18.923 15.664 20.517 15.058 21.734 13.838 C 22.954 12.618 23.56 11.024 23.56 9.427 Z M 18.773 10.877 C 18.452 11.195 18.07 11.38 17.683 11.446 C 17.296 11.512 16.896 11.462 16.54 11.313 C 16.185 11.167 15.866 10.92 15.64 10.6 C 15.413 10.279 15.274 9.877 15.274 9.423 C 15.274 8.97 15.413 8.569 15.64 8.249 C 15.866 7.927 16.185 7.682 16.54 7.534 C 16.896 7.386 17.296 7.336 17.683 7.402 C 18.07 7.469 18.453 7.655 18.773 7.975 C 19.172 8.374 19.373 8.903 19.373 9.425 C 19.373 9.949 19.171 10.476 18.773 10.877 Z M 19.313 9.425 C 19.313 8.914 19.12 8.407 18.73 8.018 C 18.416 7.703 18.051 7.527 17.672 7.462 C 17.295 7.397 16.912 7.447 16.564 7.59 C 16.215 7.735 15.91 7.97 15.689 8.284 C 15.467 8.597 15.334 8.98 15.334 9.423 C 15.334 9.867 15.467 10.251 15.689 10.564 C 15.91 10.878 16.215 11.114 16.564 11.258 C 16.912 11.402 17.295 11.451 17.672 11.387 C 18.051 11.322 18.418 11.146 18.73 10.834 C 19.121 10.445 19.313 9.938 19.313 9.425 Z M 17.326 6.686 C 18.081 6.686 18.771 6.994 19.265 7.489 C 19.76 7.984 20.068 8.673 20.068 9.428 C 20.068 10.185 19.76 10.875 19.265 11.368 C 18.771 11.863 18.081 12.172 17.326 12.172 C 16.569 12.172 15.881 11.863 15.385 11.368 C 14.89 10.875 14.582 10.185 14.582 9.428 C 14.582 8.673 14.89 7.984 15.385 7.489 C 15.881 6.994 16.569 6.686 17.326 6.686 Z M 15.428 7.532 C 14.94 8.019 14.642 8.685 14.642 9.428 C 14.642 10.172 14.94 10.839 15.428 11.327 C 15.915 11.813 16.582 12.111 17.326 12.111 C 18.068 12.111 18.735 11.813 19.223 11.327 C 19.71 10.839 20.008 10.172 20.008 9.428 C 20.008 8.685 19.71 8.019 19.223 7.532 C 18.735 7.044 18.068 6.746 17.326 6.746 C 16.582 6.746 15.915 7.044 15.428 7.532 Z M 17.726 5.974 C 18.57 6.131 18.791 6.226 19.501 6.707 L 20.118 6.097 L 20.676 6.655 L 20.058 7.272 C 20.541 7.98 20.63 8.202 20.792 9.047 L 21.665 9.047 L 21.665 9.835 L 20.792 9.835 C 20.636 10.68 20.541 10.902 20.058 11.61 L 20.676 12.227 L 20.118 12.786 L 19.501 12.174 C 18.791 12.656 18.57 12.746 17.726 12.907 L 17.726 13.781 L 16.936 13.781 L 16.936 12.907 C 16.08 12.745 15.859 12.644 15.163 12.174 L 14.546 12.786 L 13.987 12.227 L 14.604 11.61 C 14.405 11.319 14.27 11.131 14.117 10.77 C 13.964 10.408 13.929 10.185 13.864 9.835 L 12.997 9.835 L 12.997 9.047 L 13.865 9.047 C 14.02 8.202 14.117 7.98 14.597 7.272 L 13.98 6.655 L 14.539 6.097 L 15.156 6.707 C 15.864 6.226 16.086 6.136 16.931 5.974 L 16.931 5.101 L 17.726 5.101 L 17.726 5.974 Z M 16.991 5.162 L 16.991 6.025 L 16.966 6.029 C 16.108 6.192 15.888 6.281 15.169 6.771 L 15.149 6.785 L 14.539 6.182 L 14.066 6.655 L 14.675 7.264 L 14.662 7.285 C 14.171 8.004 14.076 8.223 13.919 9.082 L 13.914 9.107 L 13.059 9.107 L 13.059 9.775 L 13.914 9.775 L 13.919 9.8 C 13.987 10.164 14.023 10.391 14.173 10.746 C 14.323 11.101 14.461 11.292 14.668 11.597 L 14.682 11.618 L 14.072 12.227 L 14.546 12.7 L 15.155 12.096 L 15.176 12.111 C 15.883 12.589 16.103 12.69 16.973 12.853 L 16.998 12.857 L 16.998 13.719 L 17.665 13.719 L 17.665 12.857 L 17.69 12.853 C 18.55 12.689 18.767 12.601 19.486 12.111 L 19.507 12.096 L 20.118 12.7 L 20.589 12.227 L 19.981 11.618 L 19.994 11.597 C 20.485 10.877 20.58 10.658 20.737 9.8 L 20.741 9.775 L 21.604 9.775 L 21.604 9.107 L 20.741 9.107 L 20.737 9.083 C 20.574 8.223 20.485 8.004 19.994 7.285 L 19.981 7.264 L 20.589 6.655 L 20.118 6.182 L 19.507 6.785 L 19.486 6.771 C 18.767 6.281 18.548 6.187 17.69 6.029 L 17.665 6.025 L 17.665 5.162 L 16.991 5.162 Z M 18.412 5.406 C 18.763 5.503 19.084 5.632 19.396 5.815 L 20.104 5.107 L 21.641 6.643 L 20.931 7.352 C 21.11 7.665 21.245 7.985 21.343 8.337 L 22.344 8.337 L 22.344 10.508 L 21.343 10.508 C 21.245 10.861 21.115 11.181 20.932 11.494 L 21.641 12.203 L 20.104 13.738 L 19.396 13.03 C 19.084 13.207 18.763 13.342 18.412 13.44 L 18.412 14.442 L 16.239 14.442 L 16.239 13.44 C 16.063 13.392 15.9 13.336 15.735 13.269 C 15.558 13.195 15.407 13.122 15.254 13.035 L 14.546 13.745 L 13.009 12.208 L 13.719 11.499 C 13.541 11.188 13.405 10.867 13.309 10.516 L 12.306 10.516 L 12.306 8.342 L 13.309 8.342 C 13.405 7.99 13.536 7.669 13.719 7.358 L 13.009 6.649 L 14.546 5.113 L 15.254 5.822 C 15.566 5.645 15.887 5.509 16.239 5.411 L 16.239 4.403 L 18.412 4.403 L 18.412 5.406 Z M 16.3 4.463 L 16.3 5.458 L 16.278 5.465 C 15.92 5.56 15.579 5.705 15.265 5.886 L 15.245 5.899 L 14.546 5.199 L 13.095 6.649 L 13.795 7.348 L 13.782 7.369 C 13.596 7.682 13.457 8.024 13.361 8.381 L 13.355 8.403 L 12.367 8.403 L 12.367 10.454 L 13.355 10.454 L 13.361 10.478 C 13.457 10.834 13.601 11.175 13.782 11.489 L 13.795 11.509 L 13.095 12.208 L 14.546 13.659 L 15.245 12.96 L 15.265 12.972 C 15.422 13.062 15.584 13.14 15.759 13.212 C 15.922 13.278 16.096 13.339 16.277 13.387 L 16.3 13.393 L 16.3 14.381 L 18.35 14.381 L 18.35 13.393 L 18.374 13.387 C 18.73 13.291 19.072 13.146 19.385 12.965 L 19.406 12.954 L 20.104 13.652 L 21.555 12.203 L 20.856 11.504 L 20.868 11.483 C 21.055 11.169 21.193 10.827 21.29 10.471 L 21.295 10.449 L 22.284 10.449 L 22.284 8.397 L 21.295 8.397 L 21.29 8.374 C 21.193 8.019 21.049 7.676 20.868 7.362 L 20.856 7.342 L 21.555 6.643 L 20.104 5.193 L 19.406 5.892 L 19.385 5.881 C 19.072 5.693 18.73 5.554 18.374 5.458 L 18.35 5.452 L 18.35 4.463 L 16.3 4.463 Z M 17.702 16.949 L 17.702 18.314 L 24.773 18.314 L 24.773 20.554 L 24.02 20.554 L 24.02 19.067 L 10.631 19.067 L 10.631 20.554 L 9.879 20.554 L 9.879 18.314 L 16.948 18.314 L 16.948 16.949 L 17.702 16.949 Z M 17.01 18.375 L 9.939 18.375 L 9.939 20.493 L 10.57 20.493 L 10.57 19.007 L 24.08 19.007 L 24.08 20.493 L 24.712 20.493 L 24.712 18.375 L 17.641 18.375 L 17.641 17.01 L 17.01 17.01 L 17.01 18.375 Z" style="fill: none;" transform="matrix(1, 0, 0, 1, 1.7763568394002505e-15, 0)"/>
  <path d="M 13.52 9.256 C 13.258 9.254 13.047 9.041 13.043 8.78 L 13.043 7.588 C 13.002 7.219 13.374 6.941 13.714 7.09 C 13.91 7.174 14.027 7.377 14.002 7.588 L 14.002 8.78 C 13.998 9.045 13.784 9.256 13.52 9.256 Z" style="fill: rgb(174, 203, 250);" transform="matrix(1, 0, 0, 1, 1.7763568394002505e-15, 0)"/>
  <circle cx="13.508" cy="12.994" r="0.483" style="fill: rgb(174, 203, 250);" transform="matrix(1, 0, 0, 1, 1.7763568394002505e-15, 0)"/>
  <circle cx="13.508" cy="11.592" r="0.483" style="fill: rgb(174, 203, 250);" transform="matrix(1, 0, 0, 1, 1.7763568394002505e-15, 0)"/>
  <circle cx="13.508" cy="10.182" r="0.483" style="fill: rgb(174, 203, 250);" transform="matrix(1, 0, 0, 1, 1.7763568394002505e-15, 0)"/>
  <path d="M 21.135 10.652 C 20.871 10.649 20.659 10.434 20.659 10.17 L 20.659 8.977 C 20.659 8.61 21.056 8.382 21.372 8.565 C 21.52 8.65 21.61 8.807 21.61 8.977 L 21.61 10.17 C 21.613 10.436 21.4 10.652 21.135 10.652 Z" style="fill: rgb(66, 133, 244);" transform="matrix(1, 0, 0, 1, 1.7763568394002505e-15, 0)"/>
  <circle cx="21.147" cy="13" r="0.483" style="fill: rgb(66, 133, 244);" transform="matrix(1, 0, 0, 1, 1.7763568394002505e-15, 0)"/>
  <circle cx="21.147" cy="11.572" r="0.483" style="fill: rgb(66, 133, 244);" transform="matrix(1, 0, 0, 1, 1.7763568394002505e-15, 0)"/>
  <circle cx="21.147" cy="7.588" r="0.483" style="fill: rgb(66, 133, 244);" transform="matrix(1, 0, 0, 1, 1.7763568394002505e-15, 0)"/>
  <path d="M 17.328 14.897 C 17.066 14.894 16.855 14.683 16.852 14.421 L 16.852 13.209 C 16.895 12.841 17.32 12.656 17.618 12.877 C 17.724 12.956 17.794 13.077 17.809 13.209 L 17.809 14.409 C 17.813 14.677 17.596 14.897 17.328 14.897 Z" style="fill: rgb(102, 157, 246);" transform="matrix(1, 0, 0, 1, 1.7763568394002505e-15, 0)"/>
  <circle cx="17.328" cy="15.818" r="0.483" style="fill: rgb(102, 157, 246);" transform="matrix(1, 0, 0, 1, 1.7763568394002505e-15, 0)"/>
  <circle cx="17.328" cy="11.814" r="0.483" style="fill: rgb(102, 157, 246);" transform="matrix(1, 0, 0, 1, 1.7763568394002505e-15, 0)"/>
  <circle cx="17.328" cy="10.405" r="0.483" style="fill: rgb(102, 157, 246);" transform="matrix(1, 0, 0, 1, 1.7763568394002505e-15, 0)"/>
  <path d="M 19.231 12.067 C 18.97 12.063 18.758 11.852 18.755 11.592 L 18.755 10.398 C 18.712 10.03 19.084 9.753 19.426 9.901 C 19.621 9.985 19.737 10.187 19.713 10.398 L 19.713 11.592 C 19.709 11.855 19.495 12.067 19.231 12.067 Z" style="fill: rgb(66, 133, 244);" transform="matrix(1, 0, 0, 1, 1.7763568394002505e-15, 0)"/>
  <circle cx="19.237" cy="8.99" r="0.483" style="fill: rgb(66, 133, 244);" transform="matrix(1, 0, 0, 1, 1.7763568394002505e-15, 0)"/>
  <circle cx="19.237" cy="14.384" r="0.483" style="fill: rgb(66, 133, 244);" transform="matrix(1, 0, 0, 1, 1.7763568394002505e-15, 0)"/>
  <circle cx="19.237" cy="12.974" r="0.483" style="fill: rgb(66, 133, 244);" transform="matrix(1, 0, 0, 1, 1.7763568394002505e-15, 0)"/>
  <circle cx="15.418" cy="14.384" r="0.483" style="fill: rgb(174, 203, 250);" transform="matrix(1, 0, 0, 1, 1.7763568394002505e-15, 0)"/>
  <circle cx="15.418" cy="10.405" r="0.483" style="fill: rgb(174, 203, 250);" transform="matrix(1, 0, 0, 1, 1.7763568394002505e-15, 0)"/>
  <circle cx="15.418" cy="8.99" r="0.483" style="fill: rgb(174, 203, 250);" transform="matrix(1, 0, 0, 1, 1.7763568394002505e-15, 0)"/>
  <path d="M 15.423 13.457 C 15.165 13.458 14.951 13.253 14.942 12.994 L 14.942 11.787 C 14.942 11.421 15.338 11.193 15.655 11.376 C 15.803 11.462 15.893 11.618 15.893 11.787 L 15.893 12.994 C 15.886 13.25 15.678 13.453 15.423 13.457 Z" style="fill: rgb(174, 203, 250);" transform="matrix(1, 0, 0, 1, 1.7763568394002505e-15, 0)"/>
</svg>